<mxfile host="app.diagrams.net" agent="Mozilla/5.0 (Windows NT 10.0; Win64; x64) AppleWebKit/537.36 (KHTML, like Gecko) Chrome/135.0.0.0 Safari/537.36" version="26.3.0">
  <diagram name="Pagina-1" id="Z8vDpIf7GxvNt3tFrhUK">
    <mxGraphModel dx="992" dy="1704" grid="1" gridSize="10" guides="1" tooltips="1" connect="1" arrows="1" fold="1" page="1" pageScale="1" pageWidth="827" pageHeight="1169" math="0" shadow="0">
      <root>
        <mxCell id="0" />
        <mxCell id="1" parent="0" />
        <mxCell id="S9KXy8Z6tak_Gp8dZrwI-6" style="edgeStyle=orthogonalEdgeStyle;rounded=0;orthogonalLoop=1;jettySize=auto;html=1;entryX=0;entryY=0.5;entryDx=0;entryDy=0;exitX=1;exitY=0.5;exitDx=0;exitDy=0;" edge="1" parent="1" source="S9KXy8Z6tak_Gp8dZrwI-1" target="S9KXy8Z6tak_Gp8dZrwI-2">
          <mxGeometry relative="1" as="geometry" />
        </mxCell>
        <mxCell id="S9KXy8Z6tak_Gp8dZrwI-1" value="Inizio" style="ellipse;whiteSpace=wrap;html=1;aspect=fixed;fillColor=#d5e8d4;strokeColor=#82b366;" vertex="1" parent="1">
          <mxGeometry x="360" y="160" width="80" height="80" as="geometry" />
        </mxCell>
        <mxCell id="S9KXy8Z6tak_Gp8dZrwI-10" style="edgeStyle=orthogonalEdgeStyle;rounded=0;orthogonalLoop=1;jettySize=auto;html=1;entryX=0;entryY=0.5;entryDx=0;entryDy=0;exitX=1;exitY=0.5;exitDx=0;exitDy=0;" edge="1" parent="1" source="S9KXy8Z6tak_Gp8dZrwI-2" target="S9KXy8Z6tak_Gp8dZrwI-8">
          <mxGeometry relative="1" as="geometry" />
        </mxCell>
        <mxCell id="S9KXy8Z6tak_Gp8dZrwI-2" value="Pagina iniziale" style="rounded=1;whiteSpace=wrap;html=1;fillColor=#e1d5e7;strokeColor=#9673a6;" vertex="1" parent="1">
          <mxGeometry x="520" y="170" width="120" height="60" as="geometry" />
        </mxCell>
        <mxCell id="S9KXy8Z6tak_Gp8dZrwI-26" style="edgeStyle=orthogonalEdgeStyle;rounded=0;orthogonalLoop=1;jettySize=auto;html=1;exitX=0.5;exitY=0;exitDx=0;exitDy=0;entryX=0.5;entryY=1;entryDx=0;entryDy=0;" edge="1" parent="1" source="S9KXy8Z6tak_Gp8dZrwI-7" target="S9KXy8Z6tak_Gp8dZrwI-25">
          <mxGeometry relative="1" as="geometry" />
        </mxCell>
        <mxCell id="S9KXy8Z6tak_Gp8dZrwI-7" value="Registrazione" style="ellipse;whiteSpace=wrap;html=1;fillColor=#ffe6cc;strokeColor=#d79b00;" vertex="1" parent="1">
          <mxGeometry x="520" width="120" height="80" as="geometry" />
        </mxCell>
        <mxCell id="S9KXy8Z6tak_Gp8dZrwI-14" style="edgeStyle=orthogonalEdgeStyle;rounded=0;orthogonalLoop=1;jettySize=auto;html=1;exitX=1;exitY=0.5;exitDx=0;exitDy=0;entryX=0;entryY=0.5;entryDx=0;entryDy=0;" edge="1" parent="1" source="S9KXy8Z6tak_Gp8dZrwI-8" target="S9KXy8Z6tak_Gp8dZrwI-23">
          <mxGeometry relative="1" as="geometry">
            <mxPoint x="880" y="270" as="targetPoint" />
          </mxGeometry>
        </mxCell>
        <mxCell id="S9KXy8Z6tak_Gp8dZrwI-8" value="Login" style="ellipse;whiteSpace=wrap;html=1;fillColor=#ffe6cc;strokeColor=#d79b00;" vertex="1" parent="1">
          <mxGeometry x="720" y="160" width="120" height="80" as="geometry" />
        </mxCell>
        <mxCell id="S9KXy8Z6tak_Gp8dZrwI-153" style="edgeStyle=orthogonalEdgeStyle;rounded=0;orthogonalLoop=1;jettySize=auto;html=1;exitX=0.5;exitY=1;exitDx=0;exitDy=0;entryX=0.5;entryY=0;entryDx=0;entryDy=0;" edge="1" parent="1" source="S9KXy8Z6tak_Gp8dZrwI-9" target="S9KXy8Z6tak_Gp8dZrwI-152">
          <mxGeometry relative="1" as="geometry" />
        </mxCell>
        <mxCell id="S9KXy8Z6tak_Gp8dZrwI-9" value="Continua senza registrazione" style="ellipse;whiteSpace=wrap;html=1;fillColor=#ffe6cc;strokeColor=#d79b00;" vertex="1" parent="1">
          <mxGeometry x="520" y="320" width="120" height="80" as="geometry" />
        </mxCell>
        <mxCell id="S9KXy8Z6tak_Gp8dZrwI-11" value="" style="endArrow=classic;html=1;rounded=0;entryX=0.5;entryY=1;entryDx=0;entryDy=0;exitX=0.5;exitY=0;exitDx=0;exitDy=0;" edge="1" parent="1" source="S9KXy8Z6tak_Gp8dZrwI-2" target="S9KXy8Z6tak_Gp8dZrwI-7">
          <mxGeometry width="50" height="50" relative="1" as="geometry">
            <mxPoint x="580" y="320" as="sourcePoint" />
            <mxPoint x="630" y="270" as="targetPoint" />
            <Array as="points">
              <mxPoint x="580" y="120" />
            </Array>
          </mxGeometry>
        </mxCell>
        <mxCell id="S9KXy8Z6tak_Gp8dZrwI-12" value="" style="endArrow=classic;html=1;rounded=0;entryX=0.5;entryY=0;entryDx=0;entryDy=0;exitX=0.5;exitY=1;exitDx=0;exitDy=0;" edge="1" parent="1" source="S9KXy8Z6tak_Gp8dZrwI-2" target="S9KXy8Z6tak_Gp8dZrwI-9">
          <mxGeometry width="50" height="50" relative="1" as="geometry">
            <mxPoint x="580" y="320" as="sourcePoint" />
            <mxPoint x="630" y="270" as="targetPoint" />
            <Array as="points">
              <mxPoint x="580" y="280" />
            </Array>
          </mxGeometry>
        </mxCell>
        <mxCell id="S9KXy8Z6tak_Gp8dZrwI-16" style="edgeStyle=orthogonalEdgeStyle;rounded=0;orthogonalLoop=1;jettySize=auto;html=1;exitX=1;exitY=0.5;exitDx=0;exitDy=0;entryX=0;entryY=0.5;entryDx=0;entryDy=0;" edge="1" parent="1" source="S9KXy8Z6tak_Gp8dZrwI-13" target="S9KXy8Z6tak_Gp8dZrwI-15">
          <mxGeometry relative="1" as="geometry" />
        </mxCell>
        <mxCell id="S9KXy8Z6tak_Gp8dZrwI-17" style="edgeStyle=orthogonalEdgeStyle;rounded=0;orthogonalLoop=1;jettySize=auto;html=1;exitX=0.5;exitY=1;exitDx=0;exitDy=0;entryX=0.5;entryY=0;entryDx=0;entryDy=0;" edge="1" parent="1" source="S9KXy8Z6tak_Gp8dZrwI-13" target="S9KXy8Z6tak_Gp8dZrwI-18">
          <mxGeometry relative="1" as="geometry">
            <mxPoint x="960" y="320" as="targetPoint" />
          </mxGeometry>
        </mxCell>
        <mxCell id="S9KXy8Z6tak_Gp8dZrwI-13" value="Credenziali corrette?" style="rhombus;whiteSpace=wrap;html=1;fillColor=#fad9d5;strokeColor=#ae4132;" vertex="1" parent="1">
          <mxGeometry x="1120" y="160" width="80" height="80" as="geometry" />
        </mxCell>
        <mxCell id="S9KXy8Z6tak_Gp8dZrwI-22" style="edgeStyle=orthogonalEdgeStyle;rounded=0;orthogonalLoop=1;jettySize=auto;html=1;entryX=0;entryY=0.5;entryDx=0;entryDy=0;exitX=1;exitY=0.5;exitDx=0;exitDy=0;" edge="1" parent="1" source="S9KXy8Z6tak_Gp8dZrwI-15" target="S9KXy8Z6tak_Gp8dZrwI-21">
          <mxGeometry relative="1" as="geometry" />
        </mxCell>
        <mxCell id="S9KXy8Z6tak_Gp8dZrwI-15" value="Vero" style="ellipse;whiteSpace=wrap;html=1;aspect=fixed;fillColor=#60a917;fontColor=#ffffff;strokeColor=#2D7600;" vertex="1" parent="1">
          <mxGeometry x="1280" y="180" width="40" height="40" as="geometry" />
        </mxCell>
        <mxCell id="S9KXy8Z6tak_Gp8dZrwI-20" style="edgeStyle=orthogonalEdgeStyle;rounded=0;orthogonalLoop=1;jettySize=auto;html=1;exitX=0.5;exitY=1;exitDx=0;exitDy=0;entryX=0.5;entryY=0;entryDx=0;entryDy=0;" edge="1" parent="1" source="S9KXy8Z6tak_Gp8dZrwI-18" target="S9KXy8Z6tak_Gp8dZrwI-19">
          <mxGeometry relative="1" as="geometry" />
        </mxCell>
        <mxCell id="S9KXy8Z6tak_Gp8dZrwI-18" value="Falso" style="ellipse;whiteSpace=wrap;html=1;aspect=fixed;fillColor=#e51400;fontColor=#ffffff;strokeColor=#B20000;" vertex="1" parent="1">
          <mxGeometry x="1140" y="320" width="40" height="40" as="geometry" />
        </mxCell>
        <mxCell id="S9KXy8Z6tak_Gp8dZrwI-19" value="Pausa" style="ellipse;whiteSpace=wrap;html=1;aspect=fixed;fillColor=#dae8fc;strokeColor=#6c8ebf;" vertex="1" parent="1">
          <mxGeometry x="1120" y="430" width="80" height="80" as="geometry" />
        </mxCell>
        <mxCell id="S9KXy8Z6tak_Gp8dZrwI-44" style="edgeStyle=orthogonalEdgeStyle;rounded=0;orthogonalLoop=1;jettySize=auto;html=1;entryX=0;entryY=0.5;entryDx=0;entryDy=0;" edge="1" parent="1" source="S9KXy8Z6tak_Gp8dZrwI-21" target="S9KXy8Z6tak_Gp8dZrwI-39">
          <mxGeometry relative="1" as="geometry" />
        </mxCell>
        <mxCell id="S9KXy8Z6tak_Gp8dZrwI-45" style="edgeStyle=orthogonalEdgeStyle;rounded=0;orthogonalLoop=1;jettySize=auto;html=1;exitX=1;exitY=0.5;exitDx=0;exitDy=0;entryX=0;entryY=0.5;entryDx=0;entryDy=0;" edge="1" parent="1" source="S9KXy8Z6tak_Gp8dZrwI-21" target="S9KXy8Z6tak_Gp8dZrwI-38">
          <mxGeometry relative="1" as="geometry" />
        </mxCell>
        <mxCell id="S9KXy8Z6tak_Gp8dZrwI-46" style="edgeStyle=orthogonalEdgeStyle;rounded=0;orthogonalLoop=1;jettySize=auto;html=1;exitX=1;exitY=0.5;exitDx=0;exitDy=0;entryX=0;entryY=0.5;entryDx=0;entryDy=0;" edge="1" parent="1" source="S9KXy8Z6tak_Gp8dZrwI-21" target="S9KXy8Z6tak_Gp8dZrwI-37">
          <mxGeometry relative="1" as="geometry" />
        </mxCell>
        <mxCell id="S9KXy8Z6tak_Gp8dZrwI-47" style="edgeStyle=orthogonalEdgeStyle;rounded=0;orthogonalLoop=1;jettySize=auto;html=1;exitX=1;exitY=0.5;exitDx=0;exitDy=0;entryX=0;entryY=0.5;entryDx=0;entryDy=0;" edge="1" parent="1" source="S9KXy8Z6tak_Gp8dZrwI-21" target="S9KXy8Z6tak_Gp8dZrwI-41">
          <mxGeometry relative="1" as="geometry" />
        </mxCell>
        <mxCell id="S9KXy8Z6tak_Gp8dZrwI-48" style="edgeStyle=orthogonalEdgeStyle;rounded=0;orthogonalLoop=1;jettySize=auto;html=1;exitX=1;exitY=0.5;exitDx=0;exitDy=0;entryX=0;entryY=0.5;entryDx=0;entryDy=0;" edge="1" parent="1" source="S9KXy8Z6tak_Gp8dZrwI-21" target="S9KXy8Z6tak_Gp8dZrwI-40">
          <mxGeometry relative="1" as="geometry" />
        </mxCell>
        <mxCell id="S9KXy8Z6tak_Gp8dZrwI-49" style="edgeStyle=orthogonalEdgeStyle;rounded=0;orthogonalLoop=1;jettySize=auto;html=1;exitX=1;exitY=0.5;exitDx=0;exitDy=0;entryX=0;entryY=0.5;entryDx=0;entryDy=0;" edge="1" parent="1" source="S9KXy8Z6tak_Gp8dZrwI-21" target="S9KXy8Z6tak_Gp8dZrwI-36">
          <mxGeometry relative="1" as="geometry" />
        </mxCell>
        <mxCell id="S9KXy8Z6tak_Gp8dZrwI-163" style="edgeStyle=orthogonalEdgeStyle;rounded=0;orthogonalLoop=1;jettySize=auto;html=1;exitX=1;exitY=0.5;exitDx=0;exitDy=0;entryX=0;entryY=0.5;entryDx=0;entryDy=0;" edge="1" parent="1" source="S9KXy8Z6tak_Gp8dZrwI-21" target="S9KXy8Z6tak_Gp8dZrwI-162">
          <mxGeometry relative="1" as="geometry" />
        </mxCell>
        <mxCell id="S9KXy8Z6tak_Gp8dZrwI-21" value="Homepage" style="rounded=1;whiteSpace=wrap;html=1;fillColor=#e1d5e7;strokeColor=#9673a6;" vertex="1" parent="1">
          <mxGeometry x="1400" y="170" width="120" height="60" as="geometry" />
        </mxCell>
        <mxCell id="S9KXy8Z6tak_Gp8dZrwI-24" style="edgeStyle=orthogonalEdgeStyle;rounded=0;orthogonalLoop=1;jettySize=auto;html=1;exitX=1;exitY=0.5;exitDx=0;exitDy=0;entryX=0;entryY=0.5;entryDx=0;entryDy=0;" edge="1" parent="1" source="S9KXy8Z6tak_Gp8dZrwI-23" target="S9KXy8Z6tak_Gp8dZrwI-13">
          <mxGeometry relative="1" as="geometry" />
        </mxCell>
        <mxCell id="S9KXy8Z6tak_Gp8dZrwI-23" value="Inserimento credenziali" style="ellipse;whiteSpace=wrap;html=1;fillColor=#b0e3e6;strokeColor=#0e8088;" vertex="1" parent="1">
          <mxGeometry x="920" y="160" width="120" height="80" as="geometry" />
        </mxCell>
        <mxCell id="S9KXy8Z6tak_Gp8dZrwI-28" style="edgeStyle=orthogonalEdgeStyle;rounded=0;orthogonalLoop=1;jettySize=auto;html=1;exitX=1;exitY=0.5;exitDx=0;exitDy=0;entryX=0;entryY=0.5;entryDx=0;entryDy=0;" edge="1" parent="1" source="S9KXy8Z6tak_Gp8dZrwI-25" target="S9KXy8Z6tak_Gp8dZrwI-27">
          <mxGeometry relative="1" as="geometry" />
        </mxCell>
        <mxCell id="S9KXy8Z6tak_Gp8dZrwI-25" value="Inserimento dati" style="ellipse;whiteSpace=wrap;html=1;fillColor=#b0e3e6;strokeColor=#0e8088;" vertex="1" parent="1">
          <mxGeometry x="520" y="-160" width="120" height="80" as="geometry" />
        </mxCell>
        <mxCell id="S9KXy8Z6tak_Gp8dZrwI-30" style="edgeStyle=orthogonalEdgeStyle;rounded=0;orthogonalLoop=1;jettySize=auto;html=1;exitX=1;exitY=0.5;exitDx=0;exitDy=0;entryX=0;entryY=0.5;entryDx=0;entryDy=0;" edge="1" parent="1" source="S9KXy8Z6tak_Gp8dZrwI-27" target="S9KXy8Z6tak_Gp8dZrwI-29">
          <mxGeometry relative="1" as="geometry" />
        </mxCell>
        <mxCell id="S9KXy8Z6tak_Gp8dZrwI-34" style="edgeStyle=orthogonalEdgeStyle;rounded=0;orthogonalLoop=1;jettySize=auto;html=1;exitX=0.5;exitY=1;exitDx=0;exitDy=0;entryX=0.5;entryY=0;entryDx=0;entryDy=0;" edge="1" parent="1" source="S9KXy8Z6tak_Gp8dZrwI-27" target="S9KXy8Z6tak_Gp8dZrwI-33">
          <mxGeometry relative="1" as="geometry" />
        </mxCell>
        <mxCell id="S9KXy8Z6tak_Gp8dZrwI-27" value="Dati validi" style="rhombus;whiteSpace=wrap;html=1;fillColor=#fad9d5;strokeColor=#ae4132;" vertex="1" parent="1">
          <mxGeometry x="740" y="-160" width="80" height="80" as="geometry" />
        </mxCell>
        <mxCell id="S9KXy8Z6tak_Gp8dZrwI-32" style="edgeStyle=orthogonalEdgeStyle;rounded=0;orthogonalLoop=1;jettySize=auto;html=1;entryX=0;entryY=0.5;entryDx=0;entryDy=0;exitX=1;exitY=0.5;exitDx=0;exitDy=0;" edge="1" parent="1" source="S9KXy8Z6tak_Gp8dZrwI-29" target="S9KXy8Z6tak_Gp8dZrwI-31">
          <mxGeometry relative="1" as="geometry" />
        </mxCell>
        <mxCell id="S9KXy8Z6tak_Gp8dZrwI-29" value="Falso" style="ellipse;whiteSpace=wrap;html=1;aspect=fixed;fillColor=#e51400;fontColor=#ffffff;strokeColor=#B20000;" vertex="1" parent="1">
          <mxGeometry x="920" y="-140" width="40" height="40" as="geometry" />
        </mxCell>
        <mxCell id="S9KXy8Z6tak_Gp8dZrwI-31" value="Pausa" style="ellipse;whiteSpace=wrap;html=1;aspect=fixed;fillColor=#dae8fc;strokeColor=#6c8ebf;" vertex="1" parent="1">
          <mxGeometry x="1040" y="-160" width="80" height="80" as="geometry" />
        </mxCell>
        <mxCell id="S9KXy8Z6tak_Gp8dZrwI-35" style="edgeStyle=orthogonalEdgeStyle;rounded=0;orthogonalLoop=1;jettySize=auto;html=1;exitX=0.5;exitY=1;exitDx=0;exitDy=0;entryX=0.5;entryY=0;entryDx=0;entryDy=0;" edge="1" parent="1" source="S9KXy8Z6tak_Gp8dZrwI-33" target="S9KXy8Z6tak_Gp8dZrwI-8">
          <mxGeometry relative="1" as="geometry" />
        </mxCell>
        <mxCell id="S9KXy8Z6tak_Gp8dZrwI-33" value="Vero" style="ellipse;whiteSpace=wrap;html=1;aspect=fixed;fillColor=#60a917;fontColor=#ffffff;strokeColor=#2D7600;" vertex="1" parent="1">
          <mxGeometry x="760" y="20" width="40" height="40" as="geometry" />
        </mxCell>
        <mxCell id="S9KXy8Z6tak_Gp8dZrwI-53" style="edgeStyle=orthogonalEdgeStyle;rounded=0;orthogonalLoop=1;jettySize=auto;html=1;exitX=0.5;exitY=1;exitDx=0;exitDy=0;entryX=0.5;entryY=0;entryDx=0;entryDy=0;" edge="1" parent="1" source="S9KXy8Z6tak_Gp8dZrwI-36" target="S9KXy8Z6tak_Gp8dZrwI-52">
          <mxGeometry relative="1" as="geometry" />
        </mxCell>
        <mxCell id="S9KXy8Z6tak_Gp8dZrwI-36" value="Crea segnalazione" style="ellipse;whiteSpace=wrap;html=1;fillColor=#ffe6cc;strokeColor=#d79b00;" vertex="1" parent="1">
          <mxGeometry x="1600" y="640" width="120" height="80" as="geometry" />
        </mxCell>
        <mxCell id="S9KXy8Z6tak_Gp8dZrwI-51" style="edgeStyle=orthogonalEdgeStyle;rounded=0;orthogonalLoop=1;jettySize=auto;html=1;exitX=1;exitY=0.5;exitDx=0;exitDy=0;entryX=0;entryY=0.5;entryDx=0;entryDy=0;" edge="1" parent="1" source="S9KXy8Z6tak_Gp8dZrwI-37" target="S9KXy8Z6tak_Gp8dZrwI-50">
          <mxGeometry relative="1" as="geometry" />
        </mxCell>
        <mxCell id="S9KXy8Z6tak_Gp8dZrwI-37" value="Visualizza mappa" style="ellipse;whiteSpace=wrap;html=1;fillColor=#ffe6cc;strokeColor=#d79b00;" vertex="1" parent="1">
          <mxGeometry x="1600" width="120" height="80" as="geometry" />
        </mxCell>
        <mxCell id="S9KXy8Z6tak_Gp8dZrwI-82" style="edgeStyle=orthogonalEdgeStyle;rounded=0;orthogonalLoop=1;jettySize=auto;html=1;exitX=1;exitY=0.5;exitDx=0;exitDy=0;entryX=0;entryY=0.5;entryDx=0;entryDy=0;" edge="1" parent="1" source="S9KXy8Z6tak_Gp8dZrwI-38" target="S9KXy8Z6tak_Gp8dZrwI-81">
          <mxGeometry relative="1" as="geometry" />
        </mxCell>
        <mxCell id="S9KXy8Z6tak_Gp8dZrwI-38" value="Visualizza profilo" style="ellipse;whiteSpace=wrap;html=1;fillColor=#ffe6cc;strokeColor=#d79b00;" vertex="1" parent="1">
          <mxGeometry x="1600" y="-320" width="120" height="80" as="geometry" />
        </mxCell>
        <mxCell id="S9KXy8Z6tak_Gp8dZrwI-43" style="edgeStyle=orthogonalEdgeStyle;rounded=0;orthogonalLoop=1;jettySize=auto;html=1;exitX=1;exitY=0.5;exitDx=0;exitDy=0;entryX=0;entryY=0.5;entryDx=0;entryDy=0;" edge="1" parent="1" source="S9KXy8Z6tak_Gp8dZrwI-39" target="S9KXy8Z6tak_Gp8dZrwI-42">
          <mxGeometry relative="1" as="geometry" />
        </mxCell>
        <mxCell id="S9KXy8Z6tak_Gp8dZrwI-39" value="Applica filtri" style="ellipse;whiteSpace=wrap;html=1;fillColor=#ffe6cc;strokeColor=#d79b00;" vertex="1" parent="1">
          <mxGeometry x="1600" y="-160" width="120" height="80" as="geometry" />
        </mxCell>
        <mxCell id="S9KXy8Z6tak_Gp8dZrwI-65" style="edgeStyle=orthogonalEdgeStyle;rounded=0;orthogonalLoop=1;jettySize=auto;html=1;exitX=1;exitY=0.5;exitDx=0;exitDy=0;entryX=0;entryY=0.5;entryDx=0;entryDy=0;" edge="1" parent="1" source="S9KXy8Z6tak_Gp8dZrwI-40" target="S9KXy8Z6tak_Gp8dZrwI-64">
          <mxGeometry relative="1" as="geometry" />
        </mxCell>
        <mxCell id="S9KXy8Z6tak_Gp8dZrwI-40" value="Visualizza segnalazioni" style="ellipse;whiteSpace=wrap;html=1;fillColor=#ffe6cc;strokeColor=#d79b00;" vertex="1" parent="1">
          <mxGeometry x="1600" y="320" width="120" height="80" as="geometry" />
        </mxCell>
        <mxCell id="S9KXy8Z6tak_Gp8dZrwI-84" style="edgeStyle=orthogonalEdgeStyle;rounded=0;orthogonalLoop=1;jettySize=auto;html=1;exitX=1;exitY=0.5;exitDx=0;exitDy=0;entryX=0;entryY=0.5;entryDx=0;entryDy=0;" edge="1" parent="1" source="S9KXy8Z6tak_Gp8dZrwI-41" target="S9KXy8Z6tak_Gp8dZrwI-83">
          <mxGeometry relative="1" as="geometry" />
        </mxCell>
        <mxCell id="S9KXy8Z6tak_Gp8dZrwI-41" value="Cerca sulla mappa" style="ellipse;whiteSpace=wrap;html=1;fillColor=#ffe6cc;strokeColor=#d79b00;" vertex="1" parent="1">
          <mxGeometry x="1600" y="160" width="120" height="80" as="geometry" />
        </mxCell>
        <mxCell id="S9KXy8Z6tak_Gp8dZrwI-42" value="Applicazione dei filtri" style="rounded=1;whiteSpace=wrap;html=1;fillColor=#e1d5e7;strokeColor=#9673a6;" vertex="1" parent="1">
          <mxGeometry x="1800" y="-150" width="120" height="60" as="geometry" />
        </mxCell>
        <mxCell id="S9KXy8Z6tak_Gp8dZrwI-50" value="Navigazione nella mappa" style="rounded=1;whiteSpace=wrap;html=1;fillColor=#e1d5e7;strokeColor=#9673a6;" vertex="1" parent="1">
          <mxGeometry x="1800" y="10" width="120" height="60" as="geometry" />
        </mxCell>
        <mxCell id="S9KXy8Z6tak_Gp8dZrwI-55" style="edgeStyle=orthogonalEdgeStyle;rounded=0;orthogonalLoop=1;jettySize=auto;html=1;exitX=0.5;exitY=1;exitDx=0;exitDy=0;entryX=0.5;entryY=0;entryDx=0;entryDy=0;" edge="1" parent="1" source="S9KXy8Z6tak_Gp8dZrwI-52" target="S9KXy8Z6tak_Gp8dZrwI-54">
          <mxGeometry relative="1" as="geometry" />
        </mxCell>
        <mxCell id="S9KXy8Z6tak_Gp8dZrwI-52" value="Inserimento dati" style="ellipse;whiteSpace=wrap;html=1;fillColor=#b0e3e6;strokeColor=#0e8088;" vertex="1" parent="1">
          <mxGeometry x="1600" y="800" width="120" height="80" as="geometry" />
        </mxCell>
        <mxCell id="S9KXy8Z6tak_Gp8dZrwI-57" style="edgeStyle=orthogonalEdgeStyle;rounded=0;orthogonalLoop=1;jettySize=auto;html=1;exitX=0.5;exitY=1;exitDx=0;exitDy=0;entryX=0.5;entryY=0;entryDx=0;entryDy=0;" edge="1" parent="1" source="S9KXy8Z6tak_Gp8dZrwI-54" target="S9KXy8Z6tak_Gp8dZrwI-56">
          <mxGeometry relative="1" as="geometry" />
        </mxCell>
        <mxCell id="S9KXy8Z6tak_Gp8dZrwI-60" style="edgeStyle=orthogonalEdgeStyle;rounded=0;orthogonalLoop=1;jettySize=auto;html=1;exitX=0;exitY=0.5;exitDx=0;exitDy=0;entryX=1;entryY=0.5;entryDx=0;entryDy=0;" edge="1" parent="1" source="S9KXy8Z6tak_Gp8dZrwI-54" target="S9KXy8Z6tak_Gp8dZrwI-58">
          <mxGeometry relative="1" as="geometry" />
        </mxCell>
        <mxCell id="S9KXy8Z6tak_Gp8dZrwI-54" value="Dati validi?" style="rhombus;whiteSpace=wrap;html=1;fillColor=#fad9d5;strokeColor=#ae4132;" vertex="1" parent="1">
          <mxGeometry x="1620" y="960" width="80" height="80" as="geometry" />
        </mxCell>
        <mxCell id="S9KXy8Z6tak_Gp8dZrwI-63" style="edgeStyle=orthogonalEdgeStyle;rounded=0;orthogonalLoop=1;jettySize=auto;html=1;exitX=0.5;exitY=1;exitDx=0;exitDy=0;entryX=0.5;entryY=0;entryDx=0;entryDy=0;" edge="1" parent="1" source="S9KXy8Z6tak_Gp8dZrwI-56" target="S9KXy8Z6tak_Gp8dZrwI-62">
          <mxGeometry relative="1" as="geometry" />
        </mxCell>
        <mxCell id="S9KXy8Z6tak_Gp8dZrwI-56" value="Vero" style="ellipse;whiteSpace=wrap;html=1;aspect=fixed;fillColor=#60a917;fontColor=#ffffff;strokeColor=#2D7600;" vertex="1" parent="1">
          <mxGeometry x="1640" y="1120" width="40" height="40" as="geometry" />
        </mxCell>
        <mxCell id="S9KXy8Z6tak_Gp8dZrwI-61" style="edgeStyle=orthogonalEdgeStyle;rounded=0;orthogonalLoop=1;jettySize=auto;html=1;entryX=1;entryY=0.5;entryDx=0;entryDy=0;" edge="1" parent="1" source="S9KXy8Z6tak_Gp8dZrwI-58" target="S9KXy8Z6tak_Gp8dZrwI-59">
          <mxGeometry relative="1" as="geometry" />
        </mxCell>
        <mxCell id="S9KXy8Z6tak_Gp8dZrwI-58" value="Falso" style="ellipse;whiteSpace=wrap;html=1;aspect=fixed;fillColor=#e51400;fontColor=#ffffff;strokeColor=#B20000;" vertex="1" parent="1">
          <mxGeometry x="1480" y="980" width="40" height="40" as="geometry" />
        </mxCell>
        <mxCell id="S9KXy8Z6tak_Gp8dZrwI-59" value="Pausa" style="ellipse;whiteSpace=wrap;html=1;aspect=fixed;fillColor=#dae8fc;strokeColor=#6c8ebf;" vertex="1" parent="1">
          <mxGeometry x="1320" y="960" width="80" height="80" as="geometry" />
        </mxCell>
        <mxCell id="S9KXy8Z6tak_Gp8dZrwI-62" value="Salvataggio dei dati" style="rounded=1;whiteSpace=wrap;html=1;fillColor=#e1d5e7;strokeColor=#9673a6;" vertex="1" parent="1">
          <mxGeometry x="1600" y="1240" width="120" height="60" as="geometry" />
        </mxCell>
        <mxCell id="S9KXy8Z6tak_Gp8dZrwI-67" style="edgeStyle=orthogonalEdgeStyle;rounded=0;orthogonalLoop=1;jettySize=auto;html=1;entryX=0;entryY=0.5;entryDx=0;entryDy=0;" edge="1" parent="1" source="S9KXy8Z6tak_Gp8dZrwI-64" target="S9KXy8Z6tak_Gp8dZrwI-66">
          <mxGeometry relative="1" as="geometry" />
        </mxCell>
        <mxCell id="S9KXy8Z6tak_Gp8dZrwI-64" value="Lista segnalazioni" style="rounded=1;whiteSpace=wrap;html=1;fillColor=#e1d5e7;strokeColor=#9673a6;" vertex="1" parent="1">
          <mxGeometry x="1800" y="330" width="120" height="60" as="geometry" />
        </mxCell>
        <mxCell id="S9KXy8Z6tak_Gp8dZrwI-69" style="edgeStyle=orthogonalEdgeStyle;rounded=0;orthogonalLoop=1;jettySize=auto;html=1;exitX=1;exitY=0.5;exitDx=0;exitDy=0;entryX=0;entryY=0.5;entryDx=0;entryDy=0;" edge="1" parent="1" source="S9KXy8Z6tak_Gp8dZrwI-66" target="S9KXy8Z6tak_Gp8dZrwI-68">
          <mxGeometry relative="1" as="geometry" />
        </mxCell>
        <mxCell id="S9KXy8Z6tak_Gp8dZrwI-66" value="Click su una segnalazione specifica" style="ellipse;whiteSpace=wrap;html=1;fillColor=#b0e3e6;strokeColor=#0e8088;" vertex="1" parent="1">
          <mxGeometry x="2000" y="320" width="120" height="80" as="geometry" />
        </mxCell>
        <mxCell id="S9KXy8Z6tak_Gp8dZrwI-68" value="Dettagli segnalazione" style="rounded=1;whiteSpace=wrap;html=1;fillColor=#e1d5e7;strokeColor=#9673a6;" vertex="1" parent="1">
          <mxGeometry x="2200" y="330" width="120" height="60" as="geometry" />
        </mxCell>
        <mxCell id="S9KXy8Z6tak_Gp8dZrwI-70" value="Inizio" style="ellipse;whiteSpace=wrap;html=1;aspect=fixed;fillColor=#d5e8d4;strokeColor=#82b366;" vertex="1" parent="1">
          <mxGeometry x="40" y="-600" width="80" height="80" as="geometry" />
        </mxCell>
        <mxCell id="S9KXy8Z6tak_Gp8dZrwI-71" value="Pausa" style="ellipse;whiteSpace=wrap;html=1;aspect=fixed;fillColor=#dae8fc;strokeColor=#6c8ebf;" vertex="1" parent="1">
          <mxGeometry x="200" y="-600" width="80" height="80" as="geometry" />
        </mxCell>
        <mxCell id="S9KXy8Z6tak_Gp8dZrwI-72" value="Fine" style="ellipse;whiteSpace=wrap;html=1;aspect=fixed;fillColor=#f8cecc;strokeColor=#b85450;" vertex="1" parent="1">
          <mxGeometry x="360" y="-600" width="80" height="80" as="geometry" />
        </mxCell>
        <mxCell id="S9KXy8Z6tak_Gp8dZrwI-73" value="Risposta del sistema" style="rounded=1;whiteSpace=wrap;html=1;fillColor=#e1d5e7;strokeColor=#9673a6;" vertex="1" parent="1">
          <mxGeometry x="520" y="-590" width="120" height="60" as="geometry" />
        </mxCell>
        <mxCell id="S9KXy8Z6tak_Gp8dZrwI-74" value="Azione" style="ellipse;whiteSpace=wrap;html=1;fillColor=#b0e3e6;strokeColor=#0e8088;" vertex="1" parent="1">
          <mxGeometry x="720" y="-600" width="120" height="80" as="geometry" />
        </mxCell>
        <mxCell id="S9KXy8Z6tak_Gp8dZrwI-75" value="Azione possibile" style="ellipse;whiteSpace=wrap;html=1;fillColor=#ffe6cc;strokeColor=#d79b00;" vertex="1" parent="1">
          <mxGeometry x="920" y="-600" width="120" height="80" as="geometry" />
        </mxCell>
        <mxCell id="S9KXy8Z6tak_Gp8dZrwI-79" style="edgeStyle=orthogonalEdgeStyle;rounded=0;orthogonalLoop=1;jettySize=auto;html=1;exitX=0.5;exitY=0;exitDx=0;exitDy=0;entryX=0.5;entryY=1;entryDx=0;entryDy=0;" edge="1" parent="1" source="S9KXy8Z6tak_Gp8dZrwI-76" target="S9KXy8Z6tak_Gp8dZrwI-77">
          <mxGeometry relative="1" as="geometry" />
        </mxCell>
        <mxCell id="S9KXy8Z6tak_Gp8dZrwI-80" style="edgeStyle=orthogonalEdgeStyle;rounded=0;orthogonalLoop=1;jettySize=auto;html=1;exitX=0.5;exitY=1;exitDx=0;exitDy=0;entryX=0.5;entryY=0;entryDx=0;entryDy=0;" edge="1" parent="1" source="S9KXy8Z6tak_Gp8dZrwI-76" target="S9KXy8Z6tak_Gp8dZrwI-78">
          <mxGeometry relative="1" as="geometry" />
        </mxCell>
        <mxCell id="S9KXy8Z6tak_Gp8dZrwI-76" value="Bivio booleano" style="rhombus;whiteSpace=wrap;html=1;fillColor=#fad9d5;strokeColor=#ae4132;" vertex="1" parent="1">
          <mxGeometry x="1110" y="-600" width="80" height="80" as="geometry" />
        </mxCell>
        <mxCell id="S9KXy8Z6tak_Gp8dZrwI-77" value="Vero" style="ellipse;whiteSpace=wrap;html=1;aspect=fixed;fillColor=#60a917;fontColor=#ffffff;strokeColor=#2D7600;" vertex="1" parent="1">
          <mxGeometry x="1130" y="-720" width="40" height="40" as="geometry" />
        </mxCell>
        <mxCell id="S9KXy8Z6tak_Gp8dZrwI-78" value="Falso" style="ellipse;whiteSpace=wrap;html=1;aspect=fixed;fillColor=#e51400;fontColor=#ffffff;strokeColor=#B20000;" vertex="1" parent="1">
          <mxGeometry x="1130" y="-440" width="40" height="40" as="geometry" />
        </mxCell>
        <mxCell id="S9KXy8Z6tak_Gp8dZrwI-89" style="edgeStyle=orthogonalEdgeStyle;rounded=0;orthogonalLoop=1;jettySize=auto;html=1;entryX=0;entryY=0.5;entryDx=0;entryDy=0;exitX=1;exitY=0.5;exitDx=0;exitDy=0;" edge="1" parent="1" source="S9KXy8Z6tak_Gp8dZrwI-81" target="S9KXy8Z6tak_Gp8dZrwI-88">
          <mxGeometry relative="1" as="geometry" />
        </mxCell>
        <mxCell id="S9KXy8Z6tak_Gp8dZrwI-90" style="edgeStyle=orthogonalEdgeStyle;rounded=0;orthogonalLoop=1;jettySize=auto;html=1;exitX=1;exitY=0.5;exitDx=0;exitDy=0;entryX=0;entryY=0.5;entryDx=0;entryDy=0;" edge="1" parent="1" source="S9KXy8Z6tak_Gp8dZrwI-81" target="S9KXy8Z6tak_Gp8dZrwI-87">
          <mxGeometry relative="1" as="geometry" />
        </mxCell>
        <mxCell id="S9KXy8Z6tak_Gp8dZrwI-92" style="edgeStyle=orthogonalEdgeStyle;rounded=0;orthogonalLoop=1;jettySize=auto;html=1;exitX=1;exitY=0.5;exitDx=0;exitDy=0;entryX=0;entryY=0.5;entryDx=0;entryDy=0;" edge="1" parent="1" source="S9KXy8Z6tak_Gp8dZrwI-81" target="S9KXy8Z6tak_Gp8dZrwI-91">
          <mxGeometry relative="1" as="geometry" />
        </mxCell>
        <mxCell id="S9KXy8Z6tak_Gp8dZrwI-112" style="edgeStyle=orthogonalEdgeStyle;rounded=0;orthogonalLoop=1;jettySize=auto;html=1;exitX=0.5;exitY=0;exitDx=0;exitDy=0;entryX=0.5;entryY=1;entryDx=0;entryDy=0;" edge="1" parent="1" source="S9KXy8Z6tak_Gp8dZrwI-81" target="S9KXy8Z6tak_Gp8dZrwI-111">
          <mxGeometry relative="1" as="geometry" />
        </mxCell>
        <mxCell id="S9KXy8Z6tak_Gp8dZrwI-130" style="edgeStyle=orthogonalEdgeStyle;rounded=0;orthogonalLoop=1;jettySize=auto;html=1;entryX=0;entryY=0.5;entryDx=0;entryDy=0;" edge="1" parent="1" source="S9KXy8Z6tak_Gp8dZrwI-81" target="S9KXy8Z6tak_Gp8dZrwI-109">
          <mxGeometry relative="1" as="geometry" />
        </mxCell>
        <mxCell id="S9KXy8Z6tak_Gp8dZrwI-136" style="edgeStyle=orthogonalEdgeStyle;rounded=0;orthogonalLoop=1;jettySize=auto;html=1;exitX=1;exitY=0.5;exitDx=0;exitDy=0;entryX=0;entryY=0.5;entryDx=0;entryDy=0;" edge="1" parent="1" source="S9KXy8Z6tak_Gp8dZrwI-81" target="S9KXy8Z6tak_Gp8dZrwI-133">
          <mxGeometry relative="1" as="geometry" />
        </mxCell>
        <mxCell id="S9KXy8Z6tak_Gp8dZrwI-151" style="edgeStyle=orthogonalEdgeStyle;rounded=0;orthogonalLoop=1;jettySize=auto;html=1;exitX=1;exitY=0.5;exitDx=0;exitDy=0;entryX=0;entryY=0.5;entryDx=0;entryDy=0;" edge="1" parent="1" source="S9KXy8Z6tak_Gp8dZrwI-81" target="S9KXy8Z6tak_Gp8dZrwI-134">
          <mxGeometry relative="1" as="geometry" />
        </mxCell>
        <mxCell id="S9KXy8Z6tak_Gp8dZrwI-81" value="Pagina del profilo" style="rounded=1;whiteSpace=wrap;html=1;fillColor=#e1d5e7;strokeColor=#9673a6;" vertex="1" parent="1">
          <mxGeometry x="1800" y="-310" width="120" height="60" as="geometry" />
        </mxCell>
        <mxCell id="S9KXy8Z6tak_Gp8dZrwI-86" style="edgeStyle=orthogonalEdgeStyle;rounded=0;orthogonalLoop=1;jettySize=auto;html=1;exitX=1;exitY=0.5;exitDx=0;exitDy=0;entryX=0;entryY=0.5;entryDx=0;entryDy=0;" edge="1" parent="1" source="S9KXy8Z6tak_Gp8dZrwI-83" target="S9KXy8Z6tak_Gp8dZrwI-85">
          <mxGeometry relative="1" as="geometry" />
        </mxCell>
        <mxCell id="S9KXy8Z6tak_Gp8dZrwI-83" value="Ricerca di un indirizzo" style="ellipse;whiteSpace=wrap;html=1;fillColor=#b0e3e6;strokeColor=#0e8088;" vertex="1" parent="1">
          <mxGeometry x="1800" y="160" width="120" height="80" as="geometry" />
        </mxCell>
        <mxCell id="S9KXy8Z6tak_Gp8dZrwI-85" value="Zoom della mappa sulla zona ricercata" style="rounded=1;whiteSpace=wrap;html=1;fillColor=#e1d5e7;strokeColor=#9673a6;" vertex="1" parent="1">
          <mxGeometry x="2000" y="170" width="120" height="60" as="geometry" />
        </mxCell>
        <mxCell id="S9KXy8Z6tak_Gp8dZrwI-96" style="edgeStyle=orthogonalEdgeStyle;rounded=0;orthogonalLoop=1;jettySize=auto;html=1;exitX=1;exitY=0.5;exitDx=0;exitDy=0;entryX=0;entryY=0.5;entryDx=0;entryDy=0;" edge="1" parent="1" source="S9KXy8Z6tak_Gp8dZrwI-87" target="S9KXy8Z6tak_Gp8dZrwI-114">
          <mxGeometry relative="1" as="geometry">
            <mxPoint x="2240" y="-440" as="targetPoint" />
          </mxGeometry>
        </mxCell>
        <mxCell id="S9KXy8Z6tak_Gp8dZrwI-87" value="Modifica segnalazione" style="ellipse;whiteSpace=wrap;html=1;fillColor=#ffe6cc;strokeColor=#d79b00;" vertex="1" parent="1">
          <mxGeometry x="2040" y="-480" width="120" height="80" as="geometry" />
        </mxCell>
        <mxCell id="S9KXy8Z6tak_Gp8dZrwI-94" style="edgeStyle=orthogonalEdgeStyle;rounded=0;orthogonalLoop=1;jettySize=auto;html=1;exitX=1;exitY=0.5;exitDx=0;exitDy=0;entryX=0;entryY=0.5;entryDx=0;entryDy=0;" edge="1" parent="1" source="S9KXy8Z6tak_Gp8dZrwI-88" target="S9KXy8Z6tak_Gp8dZrwI-93">
          <mxGeometry relative="1" as="geometry" />
        </mxCell>
        <mxCell id="S9KXy8Z6tak_Gp8dZrwI-88" value="Elimina segnalazione" style="ellipse;whiteSpace=wrap;html=1;fillColor=#ffe6cc;strokeColor=#d79b00;" vertex="1" parent="1">
          <mxGeometry x="2040" y="-320" width="120" height="80" as="geometry" />
        </mxCell>
        <mxCell id="S9KXy8Z6tak_Gp8dZrwI-98" style="edgeStyle=orthogonalEdgeStyle;rounded=0;orthogonalLoop=1;jettySize=auto;html=1;exitX=1;exitY=0.5;exitDx=0;exitDy=0;entryX=0;entryY=0.5;entryDx=0;entryDy=0;" edge="1" parent="1" source="S9KXy8Z6tak_Gp8dZrwI-91" target="S9KXy8Z6tak_Gp8dZrwI-97">
          <mxGeometry relative="1" as="geometry" />
        </mxCell>
        <mxCell id="S9KXy8Z6tak_Gp8dZrwI-91" value="Crea segnalazione" style="ellipse;whiteSpace=wrap;html=1;fillColor=#ffe6cc;strokeColor=#d79b00;" vertex="1" parent="1">
          <mxGeometry x="2040" y="-160" width="120" height="80" as="geometry" />
        </mxCell>
        <mxCell id="S9KXy8Z6tak_Gp8dZrwI-93" value="Eliminazione della segnalazione&amp;nbsp;" style="rounded=1;whiteSpace=wrap;html=1;fillColor=#e1d5e7;strokeColor=#9673a6;" vertex="1" parent="1">
          <mxGeometry x="2240" y="-310" width="120" height="60" as="geometry" />
        </mxCell>
        <mxCell id="S9KXy8Z6tak_Gp8dZrwI-108" style="edgeStyle=orthogonalEdgeStyle;rounded=0;orthogonalLoop=1;jettySize=auto;html=1;entryX=0;entryY=0.5;entryDx=0;entryDy=0;exitX=1;exitY=0.5;exitDx=0;exitDy=0;" edge="1" parent="1" source="S9KXy8Z6tak_Gp8dZrwI-97" target="S9KXy8Z6tak_Gp8dZrwI-101">
          <mxGeometry relative="1" as="geometry" />
        </mxCell>
        <mxCell id="S9KXy8Z6tak_Gp8dZrwI-97" value="Inserimento dei dati" style="ellipse;whiteSpace=wrap;html=1;fillColor=#b0e3e6;strokeColor=#0e8088;" vertex="1" parent="1">
          <mxGeometry x="2240" y="-160" width="120" height="80" as="geometry" />
        </mxCell>
        <mxCell id="S9KXy8Z6tak_Gp8dZrwI-99" style="edgeStyle=orthogonalEdgeStyle;rounded=0;orthogonalLoop=1;jettySize=auto;html=1;exitX=1;exitY=0.5;exitDx=0;exitDy=0;entryX=0;entryY=0.5;entryDx=0;entryDy=0;" edge="1" parent="1" source="S9KXy8Z6tak_Gp8dZrwI-101" target="S9KXy8Z6tak_Gp8dZrwI-103">
          <mxGeometry relative="1" as="geometry" />
        </mxCell>
        <mxCell id="S9KXy8Z6tak_Gp8dZrwI-100" style="edgeStyle=orthogonalEdgeStyle;rounded=0;orthogonalLoop=1;jettySize=auto;html=1;exitX=0.5;exitY=1;exitDx=0;exitDy=0;entryX=0.5;entryY=0;entryDx=0;entryDy=0;" edge="1" parent="1" source="S9KXy8Z6tak_Gp8dZrwI-101" target="S9KXy8Z6tak_Gp8dZrwI-105">
          <mxGeometry relative="1" as="geometry" />
        </mxCell>
        <mxCell id="S9KXy8Z6tak_Gp8dZrwI-101" value="Dati validi?" style="rhombus;whiteSpace=wrap;html=1;fillColor=#fad9d5;strokeColor=#ae4132;" vertex="1" parent="1">
          <mxGeometry x="2440" y="-160" width="80" height="80" as="geometry" />
        </mxCell>
        <mxCell id="S9KXy8Z6tak_Gp8dZrwI-102" style="edgeStyle=orthogonalEdgeStyle;rounded=0;orthogonalLoop=1;jettySize=auto;html=1;exitX=1;exitY=0.5;exitDx=0;exitDy=0;entryX=0;entryY=0.5;entryDx=0;entryDy=0;" edge="1" parent="1" source="S9KXy8Z6tak_Gp8dZrwI-103" target="S9KXy8Z6tak_Gp8dZrwI-107">
          <mxGeometry relative="1" as="geometry" />
        </mxCell>
        <mxCell id="S9KXy8Z6tak_Gp8dZrwI-103" value="Vero" style="ellipse;whiteSpace=wrap;html=1;aspect=fixed;fillColor=#60a917;fontColor=#ffffff;strokeColor=#2D7600;" vertex="1" parent="1">
          <mxGeometry x="2600" y="-140" width="40" height="40" as="geometry" />
        </mxCell>
        <mxCell id="S9KXy8Z6tak_Gp8dZrwI-104" style="edgeStyle=orthogonalEdgeStyle;rounded=0;orthogonalLoop=1;jettySize=auto;html=1;entryX=0.5;entryY=0;entryDx=0;entryDy=0;exitX=0.5;exitY=1;exitDx=0;exitDy=0;" edge="1" parent="1" source="S9KXy8Z6tak_Gp8dZrwI-105" target="S9KXy8Z6tak_Gp8dZrwI-106">
          <mxGeometry relative="1" as="geometry" />
        </mxCell>
        <mxCell id="S9KXy8Z6tak_Gp8dZrwI-105" value="Falso" style="ellipse;whiteSpace=wrap;html=1;aspect=fixed;fillColor=#e51400;fontColor=#ffffff;strokeColor=#B20000;" vertex="1" parent="1">
          <mxGeometry x="2460" width="40" height="40" as="geometry" />
        </mxCell>
        <mxCell id="S9KXy8Z6tak_Gp8dZrwI-106" value="Pausa" style="ellipse;whiteSpace=wrap;html=1;aspect=fixed;fillColor=#dae8fc;strokeColor=#6c8ebf;" vertex="1" parent="1">
          <mxGeometry x="2440" y="120" width="80" height="80" as="geometry" />
        </mxCell>
        <mxCell id="S9KXy8Z6tak_Gp8dZrwI-107" value="Salvataggio dei dati" style="rounded=1;whiteSpace=wrap;html=1;fillColor=#e1d5e7;strokeColor=#9673a6;" vertex="1" parent="1">
          <mxGeometry x="2720" y="-150" width="120" height="60" as="geometry" />
        </mxCell>
        <mxCell id="S9KXy8Z6tak_Gp8dZrwI-132" style="edgeStyle=orthogonalEdgeStyle;rounded=0;orthogonalLoop=1;jettySize=auto;html=1;exitX=1;exitY=0.5;exitDx=0;exitDy=0;entryX=0;entryY=0.5;entryDx=0;entryDy=0;" edge="1" parent="1" source="S9KXy8Z6tak_Gp8dZrwI-109" target="S9KXy8Z6tak_Gp8dZrwI-131">
          <mxGeometry relative="1" as="geometry" />
        </mxCell>
        <mxCell id="S9KXy8Z6tak_Gp8dZrwI-109" value="Notifiche push attive" style="ellipse;whiteSpace=wrap;html=1;fillColor=#ffe6cc;strokeColor=#d79b00;" vertex="1" parent="1">
          <mxGeometry x="2040" y="-640" width="120" height="80" as="geometry" />
        </mxCell>
        <mxCell id="S9KXy8Z6tak_Gp8dZrwI-113" style="edgeStyle=orthogonalEdgeStyle;rounded=0;orthogonalLoop=1;jettySize=auto;html=1;exitX=0;exitY=0.5;exitDx=0;exitDy=0;entryX=0.5;entryY=0;entryDx=0;entryDy=0;" edge="1" parent="1" source="S9KXy8Z6tak_Gp8dZrwI-111" target="S9KXy8Z6tak_Gp8dZrwI-21">
          <mxGeometry relative="1" as="geometry" />
        </mxCell>
        <mxCell id="S9KXy8Z6tak_Gp8dZrwI-111" value="Torna alla homepage" style="ellipse;whiteSpace=wrap;html=1;fillColor=#ffe6cc;strokeColor=#d79b00;" vertex="1" parent="1">
          <mxGeometry x="1800" y="-480" width="120" height="80" as="geometry" />
        </mxCell>
        <mxCell id="S9KXy8Z6tak_Gp8dZrwI-129" style="edgeStyle=orthogonalEdgeStyle;rounded=0;orthogonalLoop=1;jettySize=auto;html=1;exitX=1;exitY=0.5;exitDx=0;exitDy=0;entryX=0;entryY=0.5;entryDx=0;entryDy=0;" edge="1" parent="1" source="S9KXy8Z6tak_Gp8dZrwI-114" target="S9KXy8Z6tak_Gp8dZrwI-122">
          <mxGeometry relative="1" as="geometry" />
        </mxCell>
        <mxCell id="S9KXy8Z6tak_Gp8dZrwI-114" value="Modifica dei dati" style="ellipse;whiteSpace=wrap;html=1;fillColor=#b0e3e6;strokeColor=#0e8088;" vertex="1" parent="1">
          <mxGeometry x="2240" y="-480" width="120" height="80" as="geometry" />
        </mxCell>
        <mxCell id="S9KXy8Z6tak_Gp8dZrwI-120" style="edgeStyle=orthogonalEdgeStyle;rounded=0;orthogonalLoop=1;jettySize=auto;html=1;exitX=1;exitY=0.5;exitDx=0;exitDy=0;entryX=0;entryY=0.5;entryDx=0;entryDy=0;" edge="1" parent="1" source="S9KXy8Z6tak_Gp8dZrwI-122" target="S9KXy8Z6tak_Gp8dZrwI-124">
          <mxGeometry relative="1" as="geometry" />
        </mxCell>
        <mxCell id="S9KXy8Z6tak_Gp8dZrwI-121" style="edgeStyle=orthogonalEdgeStyle;rounded=0;orthogonalLoop=1;jettySize=auto;html=1;exitX=0.5;exitY=1;exitDx=0;exitDy=0;entryX=0.5;entryY=0;entryDx=0;entryDy=0;" edge="1" parent="1" source="S9KXy8Z6tak_Gp8dZrwI-122" target="S9KXy8Z6tak_Gp8dZrwI-126">
          <mxGeometry relative="1" as="geometry" />
        </mxCell>
        <mxCell id="S9KXy8Z6tak_Gp8dZrwI-122" value="Dati validi?" style="rhombus;whiteSpace=wrap;html=1;fillColor=#fad9d5;strokeColor=#ae4132;" vertex="1" parent="1">
          <mxGeometry x="2440" y="-480" width="80" height="80" as="geometry" />
        </mxCell>
        <mxCell id="S9KXy8Z6tak_Gp8dZrwI-123" style="edgeStyle=orthogonalEdgeStyle;rounded=0;orthogonalLoop=1;jettySize=auto;html=1;exitX=1;exitY=0.5;exitDx=0;exitDy=0;entryX=0;entryY=0.5;entryDx=0;entryDy=0;" edge="1" parent="1" source="S9KXy8Z6tak_Gp8dZrwI-124" target="S9KXy8Z6tak_Gp8dZrwI-128">
          <mxGeometry relative="1" as="geometry" />
        </mxCell>
        <mxCell id="S9KXy8Z6tak_Gp8dZrwI-124" value="Vero" style="ellipse;whiteSpace=wrap;html=1;aspect=fixed;fillColor=#60a917;fontColor=#ffffff;strokeColor=#2D7600;" vertex="1" parent="1">
          <mxGeometry x="2600" y="-460" width="40" height="40" as="geometry" />
        </mxCell>
        <mxCell id="S9KXy8Z6tak_Gp8dZrwI-125" style="edgeStyle=orthogonalEdgeStyle;rounded=0;orthogonalLoop=1;jettySize=auto;html=1;entryX=0.5;entryY=0;entryDx=0;entryDy=0;exitX=0.5;exitY=1;exitDx=0;exitDy=0;" edge="1" parent="1" source="S9KXy8Z6tak_Gp8dZrwI-126" target="S9KXy8Z6tak_Gp8dZrwI-127">
          <mxGeometry relative="1" as="geometry" />
        </mxCell>
        <mxCell id="S9KXy8Z6tak_Gp8dZrwI-126" value="Falso" style="ellipse;whiteSpace=wrap;html=1;aspect=fixed;fillColor=#e51400;fontColor=#ffffff;strokeColor=#B20000;" vertex="1" parent="1">
          <mxGeometry x="2460" y="-360" width="40" height="40" as="geometry" />
        </mxCell>
        <mxCell id="S9KXy8Z6tak_Gp8dZrwI-127" value="Pausa" style="ellipse;whiteSpace=wrap;html=1;aspect=fixed;fillColor=#dae8fc;strokeColor=#6c8ebf;" vertex="1" parent="1">
          <mxGeometry x="2440" y="-280" width="80" height="80" as="geometry" />
        </mxCell>
        <mxCell id="S9KXy8Z6tak_Gp8dZrwI-128" value="Salvataggio dei dati" style="rounded=1;whiteSpace=wrap;html=1;fillColor=#e1d5e7;strokeColor=#9673a6;" vertex="1" parent="1">
          <mxGeometry x="2720" y="-470" width="120" height="60" as="geometry" />
        </mxCell>
        <mxCell id="S9KXy8Z6tak_Gp8dZrwI-131" value="Salvataggio&amp;nbsp;&lt;div&gt;della scelta&lt;/div&gt;" style="rounded=1;whiteSpace=wrap;html=1;fillColor=#e1d5e7;strokeColor=#9673a6;" vertex="1" parent="1">
          <mxGeometry x="2240" y="-630" width="120" height="60" as="geometry" />
        </mxCell>
        <mxCell id="S9KXy8Z6tak_Gp8dZrwI-137" style="edgeStyle=orthogonalEdgeStyle;rounded=0;orthogonalLoop=1;jettySize=auto;html=1;exitX=1;exitY=0.5;exitDx=0;exitDy=0;entryX=0;entryY=0.5;entryDx=0;entryDy=0;" edge="1" parent="1" source="S9KXy8Z6tak_Gp8dZrwI-133" target="S9KXy8Z6tak_Gp8dZrwI-135">
          <mxGeometry relative="1" as="geometry" />
        </mxCell>
        <mxCell id="S9KXy8Z6tak_Gp8dZrwI-133" value="Elimina account" style="ellipse;whiteSpace=wrap;html=1;fillColor=#ffe6cc;strokeColor=#d79b00;" vertex="1" parent="1">
          <mxGeometry x="2040" y="-800" width="120" height="80" as="geometry" />
        </mxCell>
        <mxCell id="S9KXy8Z6tak_Gp8dZrwI-150" style="edgeStyle=orthogonalEdgeStyle;rounded=0;orthogonalLoop=1;jettySize=auto;html=1;exitX=1;exitY=0.5;exitDx=0;exitDy=0;entryX=0;entryY=0.5;entryDx=0;entryDy=0;" edge="1" parent="1" source="S9KXy8Z6tak_Gp8dZrwI-134" target="S9KXy8Z6tak_Gp8dZrwI-138">
          <mxGeometry relative="1" as="geometry" />
        </mxCell>
        <mxCell id="S9KXy8Z6tak_Gp8dZrwI-134" value="Modifica passord" style="ellipse;whiteSpace=wrap;html=1;fillColor=#ffe6cc;strokeColor=#d79b00;" vertex="1" parent="1">
          <mxGeometry x="2040" y="-960" width="120" height="80" as="geometry" />
        </mxCell>
        <mxCell id="S9KXy8Z6tak_Gp8dZrwI-135" value="Conferma eliminazione account" style="rounded=1;whiteSpace=wrap;html=1;fillColor=#e1d5e7;strokeColor=#9673a6;" vertex="1" parent="1">
          <mxGeometry x="2240" y="-790" width="120" height="60" as="geometry" />
        </mxCell>
        <mxCell id="S9KXy8Z6tak_Gp8dZrwI-149" style="edgeStyle=orthogonalEdgeStyle;rounded=0;orthogonalLoop=1;jettySize=auto;html=1;exitX=1;exitY=0.5;exitDx=0;exitDy=0;entryX=0;entryY=0.5;entryDx=0;entryDy=0;" edge="1" parent="1" source="S9KXy8Z6tak_Gp8dZrwI-138" target="S9KXy8Z6tak_Gp8dZrwI-142">
          <mxGeometry relative="1" as="geometry" />
        </mxCell>
        <mxCell id="S9KXy8Z6tak_Gp8dZrwI-138" value="Modifica della password" style="ellipse;whiteSpace=wrap;html=1;fillColor=#b0e3e6;strokeColor=#0e8088;" vertex="1" parent="1">
          <mxGeometry x="2240" y="-960" width="120" height="80" as="geometry" />
        </mxCell>
        <mxCell id="S9KXy8Z6tak_Gp8dZrwI-140" style="edgeStyle=orthogonalEdgeStyle;rounded=0;orthogonalLoop=1;jettySize=auto;html=1;exitX=1;exitY=0.5;exitDx=0;exitDy=0;entryX=0;entryY=0.5;entryDx=0;entryDy=0;" edge="1" parent="1" source="S9KXy8Z6tak_Gp8dZrwI-142" target="S9KXy8Z6tak_Gp8dZrwI-144">
          <mxGeometry relative="1" as="geometry" />
        </mxCell>
        <mxCell id="S9KXy8Z6tak_Gp8dZrwI-141" style="edgeStyle=orthogonalEdgeStyle;rounded=0;orthogonalLoop=1;jettySize=auto;html=1;exitX=0.5;exitY=1;exitDx=0;exitDy=0;entryX=0.5;entryY=0;entryDx=0;entryDy=0;" edge="1" parent="1" source="S9KXy8Z6tak_Gp8dZrwI-142" target="S9KXy8Z6tak_Gp8dZrwI-146">
          <mxGeometry relative="1" as="geometry" />
        </mxCell>
        <mxCell id="S9KXy8Z6tak_Gp8dZrwI-142" value="Dati validi?" style="rhombus;whiteSpace=wrap;html=1;fillColor=#fad9d5;strokeColor=#ae4132;" vertex="1" parent="1">
          <mxGeometry x="2440" y="-960" width="80" height="80" as="geometry" />
        </mxCell>
        <mxCell id="S9KXy8Z6tak_Gp8dZrwI-143" style="edgeStyle=orthogonalEdgeStyle;rounded=0;orthogonalLoop=1;jettySize=auto;html=1;exitX=1;exitY=0.5;exitDx=0;exitDy=0;entryX=0;entryY=0.5;entryDx=0;entryDy=0;" edge="1" parent="1" source="S9KXy8Z6tak_Gp8dZrwI-144" target="S9KXy8Z6tak_Gp8dZrwI-148">
          <mxGeometry relative="1" as="geometry" />
        </mxCell>
        <mxCell id="S9KXy8Z6tak_Gp8dZrwI-144" value="Vero" style="ellipse;whiteSpace=wrap;html=1;aspect=fixed;fillColor=#60a917;fontColor=#ffffff;strokeColor=#2D7600;" vertex="1" parent="1">
          <mxGeometry x="2590" y="-940" width="40" height="40" as="geometry" />
        </mxCell>
        <mxCell id="S9KXy8Z6tak_Gp8dZrwI-145" style="edgeStyle=orthogonalEdgeStyle;rounded=0;orthogonalLoop=1;jettySize=auto;html=1;entryX=0.5;entryY=0;entryDx=0;entryDy=0;exitX=0.5;exitY=1;exitDx=0;exitDy=0;" edge="1" parent="1" source="S9KXy8Z6tak_Gp8dZrwI-146" target="S9KXy8Z6tak_Gp8dZrwI-147">
          <mxGeometry relative="1" as="geometry" />
        </mxCell>
        <mxCell id="S9KXy8Z6tak_Gp8dZrwI-146" value="Falso" style="ellipse;whiteSpace=wrap;html=1;aspect=fixed;fillColor=#e51400;fontColor=#ffffff;strokeColor=#B20000;" vertex="1" parent="1">
          <mxGeometry x="2460" y="-800" width="40" height="40" as="geometry" />
        </mxCell>
        <mxCell id="S9KXy8Z6tak_Gp8dZrwI-147" value="Pausa" style="ellipse;whiteSpace=wrap;html=1;aspect=fixed;fillColor=#dae8fc;strokeColor=#6c8ebf;" vertex="1" parent="1">
          <mxGeometry x="2440" y="-680" width="80" height="80" as="geometry" />
        </mxCell>
        <mxCell id="S9KXy8Z6tak_Gp8dZrwI-148" value="Salvataggio dei dati" style="rounded=1;whiteSpace=wrap;html=1;fillColor=#e1d5e7;strokeColor=#9673a6;" vertex="1" parent="1">
          <mxGeometry x="2710" y="-950" width="120" height="60" as="geometry" />
        </mxCell>
        <mxCell id="S9KXy8Z6tak_Gp8dZrwI-158" style="edgeStyle=orthogonalEdgeStyle;rounded=0;orthogonalLoop=1;jettySize=auto;html=1;entryX=0.5;entryY=0;entryDx=0;entryDy=0;exitX=0.5;exitY=1;exitDx=0;exitDy=0;" edge="1" parent="1" source="S9KXy8Z6tak_Gp8dZrwI-152" target="S9KXy8Z6tak_Gp8dZrwI-155">
          <mxGeometry relative="1" as="geometry" />
        </mxCell>
        <mxCell id="S9KXy8Z6tak_Gp8dZrwI-159" style="edgeStyle=orthogonalEdgeStyle;rounded=0;orthogonalLoop=1;jettySize=auto;html=1;exitX=0.5;exitY=1;exitDx=0;exitDy=0;entryX=0.5;entryY=0;entryDx=0;entryDy=0;" edge="1" parent="1" source="S9KXy8Z6tak_Gp8dZrwI-152" target="S9KXy8Z6tak_Gp8dZrwI-157">
          <mxGeometry relative="1" as="geometry" />
        </mxCell>
        <mxCell id="S9KXy8Z6tak_Gp8dZrwI-160" style="edgeStyle=orthogonalEdgeStyle;rounded=0;orthogonalLoop=1;jettySize=auto;html=1;exitX=0.5;exitY=1;exitDx=0;exitDy=0;entryX=0.5;entryY=0;entryDx=0;entryDy=0;" edge="1" parent="1" source="S9KXy8Z6tak_Gp8dZrwI-152" target="S9KXy8Z6tak_Gp8dZrwI-154">
          <mxGeometry relative="1" as="geometry" />
        </mxCell>
        <mxCell id="S9KXy8Z6tak_Gp8dZrwI-161" style="edgeStyle=orthogonalEdgeStyle;rounded=0;orthogonalLoop=1;jettySize=auto;html=1;exitX=0.5;exitY=1;exitDx=0;exitDy=0;entryX=0.5;entryY=0;entryDx=0;entryDy=0;" edge="1" parent="1" source="S9KXy8Z6tak_Gp8dZrwI-152" target="S9KXy8Z6tak_Gp8dZrwI-156">
          <mxGeometry relative="1" as="geometry" />
        </mxCell>
        <mxCell id="S9KXy8Z6tak_Gp8dZrwI-152" value="Homepage" style="rounded=1;whiteSpace=wrap;html=1;fillColor=#e1d5e7;strokeColor=#9673a6;" vertex="1" parent="1">
          <mxGeometry x="520" y="480" width="120" height="60" as="geometry" />
        </mxCell>
        <mxCell id="S9KXy8Z6tak_Gp8dZrwI-154" value="Cerca sulla mappa" style="ellipse;whiteSpace=wrap;html=1;fillColor=#ffe6cc;strokeColor=#d79b00;" vertex="1" parent="1">
          <mxGeometry x="420" y="620" width="120" height="80" as="geometry" />
        </mxCell>
        <mxCell id="S9KXy8Z6tak_Gp8dZrwI-155" value="Visualizza mappa" style="ellipse;whiteSpace=wrap;html=1;fillColor=#ffe6cc;strokeColor=#d79b00;" vertex="1" parent="1">
          <mxGeometry x="620" y="620" width="120" height="80" as="geometry" />
        </mxCell>
        <mxCell id="S9KXy8Z6tak_Gp8dZrwI-156" value="Visualizza segnalazioni" style="ellipse;whiteSpace=wrap;html=1;fillColor=#ffe6cc;strokeColor=#d79b00;" vertex="1" parent="1">
          <mxGeometry x="220" y="620" width="120" height="80" as="geometry" />
        </mxCell>
        <mxCell id="S9KXy8Z6tak_Gp8dZrwI-157" value="Accedi" style="ellipse;whiteSpace=wrap;html=1;fillColor=#ffe6cc;strokeColor=#d79b00;" vertex="1" parent="1">
          <mxGeometry x="820" y="620" width="120" height="80" as="geometry" />
        </mxCell>
        <mxCell id="S9KXy8Z6tak_Gp8dZrwI-165" style="edgeStyle=orthogonalEdgeStyle;rounded=0;orthogonalLoop=1;jettySize=auto;html=1;exitX=1;exitY=0.5;exitDx=0;exitDy=0;entryX=0;entryY=0.5;entryDx=0;entryDy=0;" edge="1" parent="1" source="S9KXy8Z6tak_Gp8dZrwI-162" target="S9KXy8Z6tak_Gp8dZrwI-164">
          <mxGeometry relative="1" as="geometry" />
        </mxCell>
        <mxCell id="S9KXy8Z6tak_Gp8dZrwI-162" value="Logout" style="ellipse;whiteSpace=wrap;html=1;fillColor=#ffe6cc;strokeColor=#d79b00;" vertex="1" parent="1">
          <mxGeometry x="1600" y="480" width="120" height="80" as="geometry" />
        </mxCell>
        <mxCell id="S9KXy8Z6tak_Gp8dZrwI-164" value="Fine" style="ellipse;whiteSpace=wrap;html=1;aspect=fixed;fillColor=#f8cecc;strokeColor=#b85450;" vertex="1" parent="1">
          <mxGeometry x="1800" y="480" width="80" height="80" as="geometry" />
        </mxCell>
      </root>
    </mxGraphModel>
  </diagram>
</mxfile>
